<svg width="28" height="24" viewBox="0 0 28 24" fill="none" xmlns="http://www.w3.org/2000/svg">
<path d="M25.6666 3.83336H21.9667C21.499 3.83336 21.0598 3.65109 20.7289 3.32066L18.596 1.18785C18.0452 0.636984 17.3126 0.333359 16.5333 0.333359H11.4667C10.6874 0.333359 9.95482 0.636984 9.40395 1.18785L7.27114 3.32066C6.94017 3.65109 6.50098 3.83336 6.03329 3.83336H2.33335C1.04645 3.83336 0 4.8798 0 6.16666V21.3333C0 22.6202 1.04645 23.6667 2.33335 23.6667H25.6667C26.9536 23.6667 28.0001 22.6202 28.0001 21.3333V6.16666C28 4.8798 26.9536 3.83336 25.6666 3.83336ZM14 20.1667C10.14 20.1667 7 17.0267 7 13.1667C7 9.30665 10.14 6.16666 14 6.16666C17.86 6.16666 21 9.30665 21 13.1667C21 17.0267 17.86 20.1667 14 20.1667ZM23.3334 9.66665C22.6902 9.66665 22.1667 9.14313 22.1667 8.50001C22.1667 7.85688 22.6902 7.33336 23.3334 7.33336C23.9765 7.33336 24.5 7.85688 24.5 8.50001C24.5 9.14313 23.9765 9.66665 23.3334 9.66665Z" fill="#AEB3BC"/>
</svg>
