<svg width="29" height="29" viewBox="0 0 29 29" fill="none" xmlns="http://www.w3.org/2000/svg">
<path d="M28.4019 0.598241C27.9 0.0964613 27.1878 -0.106879 26.4967 0.0543206C26.4935 0.055057 26.4904 0.0557933 26.4872 0.0565863L3.71319 5.63019C1.52692 6.16522 0 8.11088 0 10.3617V13.3673C0 14.4623 0.867678 15.3586 1.95167 15.4045L10.5182 16.8627C10.6992 16.8935 10.8839 16.8346 11.0137 16.7048L21.1092 6.60928C21.4631 6.25539 22.0369 6.25539 22.3908 6.60928C22.7447 6.96323 22.7447 7.537 22.3908 7.89095L12.2954 17.9865C12.1656 18.1163 12.1067 18.301 12.1375 18.482L13.5956 27.0485C13.6416 28.1324 14.5378 29.0001 15.6328 29.0001H18.6384C20.8892 29.0001 22.8349 27.4732 23.3699 25.287L28.9435 2.51292C28.9443 2.50975 28.945 2.50658 28.9457 2.5034C29.107 1.81228 28.9037 1.10008 28.4019 0.598241Z" fill="#AEB3BC"/>
</svg>
